<mxfile host="app.diagrams.net" agent="Mozilla/5.0 (X11; Ubuntu; Linux x86_64; rv:134.0) Gecko/20100101 Firefox/134.0" version="26.0.9">
  <diagram name="Page-1" id="I9F-qeQXO35rgJ-IOHDB">
    <mxGraphModel dx="1044" dy="915" grid="1" gridSize="10" guides="1" tooltips="1" connect="1" arrows="1" fold="1" page="1" pageScale="1" pageWidth="850" pageHeight="1100" math="0" shadow="0">
      <root>
        <mxCell id="0" />
        <mxCell id="1" parent="0" />
        <mxCell id="IF8HPUA9k70EKGD5hPpf-19" style="edgeStyle=orthogonalEdgeStyle;rounded=0;orthogonalLoop=1;jettySize=auto;html=1;entryX=0.5;entryY=0;entryDx=0;entryDy=0;" edge="1" parent="1" source="IF8HPUA9k70EKGD5hPpf-1" target="IF8HPUA9k70EKGD5hPpf-2">
          <mxGeometry relative="1" as="geometry" />
        </mxCell>
        <mxCell id="IF8HPUA9k70EKGD5hPpf-1" value="START" style="ellipse;whiteSpace=wrap;html=1;" vertex="1" parent="1">
          <mxGeometry x="365" y="10" width="120" height="80" as="geometry" />
        </mxCell>
        <mxCell id="IF8HPUA9k70EKGD5hPpf-20" style="edgeStyle=orthogonalEdgeStyle;rounded=0;orthogonalLoop=1;jettySize=auto;html=1;" edge="1" parent="1" source="IF8HPUA9k70EKGD5hPpf-2">
          <mxGeometry relative="1" as="geometry">
            <mxPoint x="425" y="260" as="targetPoint" />
          </mxGeometry>
        </mxCell>
        <mxCell id="IF8HPUA9k70EKGD5hPpf-2" value="Read A, B " style="shape=parallelogram;perimeter=parallelogramPerimeter;whiteSpace=wrap;html=1;fixedSize=1;" vertex="1" parent="1">
          <mxGeometry x="365" y="150" width="120" height="60" as="geometry" />
        </mxCell>
        <mxCell id="IF8HPUA9k70EKGD5hPpf-7" style="edgeStyle=orthogonalEdgeStyle;rounded=0;orthogonalLoop=1;jettySize=auto;html=1;" edge="1" parent="1" source="IF8HPUA9k70EKGD5hPpf-3">
          <mxGeometry relative="1" as="geometry">
            <mxPoint x="220" y="310" as="targetPoint" />
          </mxGeometry>
        </mxCell>
        <mxCell id="IF8HPUA9k70EKGD5hPpf-15" value="FALSE" style="edgeLabel;html=1;align=center;verticalAlign=middle;resizable=0;points=[];" vertex="1" connectable="0" parent="IF8HPUA9k70EKGD5hPpf-7">
          <mxGeometry x="0.0841" y="1" relative="1" as="geometry">
            <mxPoint as="offset" />
          </mxGeometry>
        </mxCell>
        <mxCell id="IF8HPUA9k70EKGD5hPpf-17" style="edgeStyle=orthogonalEdgeStyle;rounded=0;orthogonalLoop=1;jettySize=auto;html=1;" edge="1" parent="1" source="IF8HPUA9k70EKGD5hPpf-3" target="IF8HPUA9k70EKGD5hPpf-4">
          <mxGeometry relative="1" as="geometry" />
        </mxCell>
        <mxCell id="IF8HPUA9k70EKGD5hPpf-18" value="TRUE" style="edgeLabel;html=1;align=center;verticalAlign=middle;resizable=0;points=[];" vertex="1" connectable="0" parent="IF8HPUA9k70EKGD5hPpf-17">
          <mxGeometry x="-0.12" y="-2" relative="1" as="geometry">
            <mxPoint as="offset" />
          </mxGeometry>
        </mxCell>
        <mxCell id="IF8HPUA9k70EKGD5hPpf-3" value="&lt;div&gt;A %1 == 0&lt;/div&gt;&lt;div&gt;AND&lt;/div&gt;&lt;div&gt;B %1 == 0&lt;br&gt;&lt;/div&gt;" style="rhombus;whiteSpace=wrap;html=1;" vertex="1" parent="1">
          <mxGeometry x="380" y="270" width="80" height="80" as="geometry" />
        </mxCell>
        <mxCell id="IF8HPUA9k70EKGD5hPpf-8" style="edgeStyle=orthogonalEdgeStyle;rounded=0;orthogonalLoop=1;jettySize=auto;html=1;" edge="1" parent="1" source="IF8HPUA9k70EKGD5hPpf-4" target="IF8HPUA9k70EKGD5hPpf-9">
          <mxGeometry relative="1" as="geometry">
            <mxPoint x="230" y="340" as="targetPoint" />
          </mxGeometry>
        </mxCell>
        <mxCell id="IF8HPUA9k70EKGD5hPpf-14" value="FALSE" style="edgeLabel;html=1;align=center;verticalAlign=middle;resizable=0;points=[];" vertex="1" connectable="0" parent="IF8HPUA9k70EKGD5hPpf-8">
          <mxGeometry x="-0.2276" y="-3" relative="1" as="geometry">
            <mxPoint as="offset" />
          </mxGeometry>
        </mxCell>
        <mxCell id="IF8HPUA9k70EKGD5hPpf-12" style="edgeStyle=orthogonalEdgeStyle;rounded=0;orthogonalLoop=1;jettySize=auto;html=1;" edge="1" parent="1" source="IF8HPUA9k70EKGD5hPpf-4">
          <mxGeometry relative="1" as="geometry">
            <mxPoint x="410" y="530" as="targetPoint" />
          </mxGeometry>
        </mxCell>
        <mxCell id="IF8HPUA9k70EKGD5hPpf-16" value="TRUE" style="edgeLabel;html=1;align=center;verticalAlign=middle;resizable=0;points=[];" vertex="1" connectable="0" parent="IF8HPUA9k70EKGD5hPpf-12">
          <mxGeometry x="0.0082" y="2" relative="1" as="geometry">
            <mxPoint y="-2" as="offset" />
          </mxGeometry>
        </mxCell>
        <mxCell id="IF8HPUA9k70EKGD5hPpf-4" value="&lt;div&gt;A &amp;lt; B AND&lt;/div&gt;&lt;div&gt;A &amp;gt; 0 &lt;br&gt;&lt;/div&gt;&lt;div&gt;AND &lt;br&gt;&lt;/div&gt;&lt;div&gt;B &amp;gt; 0&lt;br&gt;&lt;/div&gt;" style="rhombus;whiteSpace=wrap;html=1;" vertex="1" parent="1">
          <mxGeometry x="370" y="390" width="80" height="80" as="geometry" />
        </mxCell>
        <mxCell id="IF8HPUA9k70EKGD5hPpf-11" style="edgeStyle=orthogonalEdgeStyle;rounded=0;orthogonalLoop=1;jettySize=auto;html=1;" edge="1" parent="1" source="IF8HPUA9k70EKGD5hPpf-9">
          <mxGeometry relative="1" as="geometry">
            <mxPoint x="50" y="470" as="targetPoint" />
          </mxGeometry>
        </mxCell>
        <mxCell id="IF8HPUA9k70EKGD5hPpf-9" value="Read &quot;errore&quot;" style="shape=parallelogram;perimeter=parallelogramPerimeter;whiteSpace=wrap;html=1;fixedSize=1;" vertex="1" parent="1">
          <mxGeometry x="100" y="290" width="120" height="60" as="geometry" />
        </mxCell>
        <mxCell id="IF8HPUA9k70EKGD5hPpf-10" value="END" style="ellipse;whiteSpace=wrap;html=1;" vertex="1" parent="1">
          <mxGeometry x="10" y="480" width="120" height="80" as="geometry" />
        </mxCell>
        <mxCell id="IF8HPUA9k70EKGD5hPpf-27" style="edgeStyle=orthogonalEdgeStyle;rounded=0;orthogonalLoop=1;jettySize=auto;html=1;entryX=0.5;entryY=0;entryDx=0;entryDy=0;" edge="1" parent="1" source="IF8HPUA9k70EKGD5hPpf-22" target="IF8HPUA9k70EKGD5hPpf-23">
          <mxGeometry relative="1" as="geometry" />
        </mxCell>
        <mxCell id="IF8HPUA9k70EKGD5hPpf-22" value="somma = 0" style="rounded=0;whiteSpace=wrap;html=1;" vertex="1" parent="1">
          <mxGeometry x="360" y="530" width="120" height="60" as="geometry" />
        </mxCell>
        <mxCell id="IF8HPUA9k70EKGD5hPpf-28" style="edgeStyle=orthogonalEdgeStyle;rounded=0;orthogonalLoop=1;jettySize=auto;html=1;entryX=0.5;entryY=0;entryDx=0;entryDy=0;" edge="1" parent="1" source="IF8HPUA9k70EKGD5hPpf-23" target="IF8HPUA9k70EKGD5hPpf-24">
          <mxGeometry relative="1" as="geometry" />
        </mxCell>
        <mxCell id="IF8HPUA9k70EKGD5hPpf-23" value="i = A" style="rounded=0;whiteSpace=wrap;html=1;" vertex="1" parent="1">
          <mxGeometry x="360" y="660" width="120" height="60" as="geometry" />
        </mxCell>
        <mxCell id="IF8HPUA9k70EKGD5hPpf-29" style="edgeStyle=orthogonalEdgeStyle;rounded=0;orthogonalLoop=1;jettySize=auto;html=1;exitX=0.5;exitY=1;exitDx=0;exitDy=0;entryX=0.5;entryY=0;entryDx=0;entryDy=0;" edge="1" parent="1" source="IF8HPUA9k70EKGD5hPpf-24" target="IF8HPUA9k70EKGD5hPpf-25">
          <mxGeometry relative="1" as="geometry" />
        </mxCell>
        <mxCell id="IF8HPUA9k70EKGD5hPpf-30" value="TRUE" style="edgeLabel;html=1;align=center;verticalAlign=middle;resizable=0;points=[];" vertex="1" connectable="0" parent="IF8HPUA9k70EKGD5hPpf-29">
          <mxGeometry x="-0.1" y="-1" relative="1" as="geometry">
            <mxPoint as="offset" />
          </mxGeometry>
        </mxCell>
        <mxCell id="IF8HPUA9k70EKGD5hPpf-37" style="edgeStyle=orthogonalEdgeStyle;rounded=0;orthogonalLoop=1;jettySize=auto;html=1;entryX=0;entryY=0.75;entryDx=0;entryDy=0;" edge="1" parent="1" source="IF8HPUA9k70EKGD5hPpf-24" target="IF8HPUA9k70EKGD5hPpf-32">
          <mxGeometry relative="1" as="geometry">
            <mxPoint x="260" y="1160" as="targetPoint" />
            <Array as="points">
              <mxPoint x="261" y="800" />
              <mxPoint x="261" y="1165" />
            </Array>
          </mxGeometry>
        </mxCell>
        <mxCell id="IF8HPUA9k70EKGD5hPpf-24" value="i &amp;lt;= B" style="rhombus;whiteSpace=wrap;html=1;" vertex="1" parent="1">
          <mxGeometry x="380" y="760" width="80" height="80" as="geometry" />
        </mxCell>
        <mxCell id="IF8HPUA9k70EKGD5hPpf-25" value="somma += i" style="rounded=0;whiteSpace=wrap;html=1;" vertex="1" parent="1">
          <mxGeometry x="360" y="880" width="120" height="70" as="geometry" />
        </mxCell>
        <mxCell id="IF8HPUA9k70EKGD5hPpf-33" style="edgeStyle=orthogonalEdgeStyle;rounded=0;orthogonalLoop=1;jettySize=auto;html=1;entryX=0.5;entryY=0;entryDx=0;entryDy=0;" edge="1" parent="1" source="IF8HPUA9k70EKGD5hPpf-26" target="IF8HPUA9k70EKGD5hPpf-32">
          <mxGeometry relative="1" as="geometry" />
        </mxCell>
        <mxCell id="IF8HPUA9k70EKGD5hPpf-26" value="i += 1" style="rounded=0;whiteSpace=wrap;html=1;" vertex="1" parent="1">
          <mxGeometry x="350" y="1000" width="120" height="60" as="geometry" />
        </mxCell>
        <mxCell id="IF8HPUA9k70EKGD5hPpf-31" style="edgeStyle=orthogonalEdgeStyle;rounded=0;orthogonalLoop=1;jettySize=auto;html=1;entryX=0.592;entryY=-0.017;entryDx=0;entryDy=0;entryPerimeter=0;" edge="1" parent="1">
          <mxGeometry relative="1" as="geometry">
            <mxPoint x="420" y="949" as="sourcePoint" />
            <mxPoint x="421.03999999999996" y="997.98" as="targetPoint" />
          </mxGeometry>
        </mxCell>
        <mxCell id="IF8HPUA9k70EKGD5hPpf-40" style="edgeStyle=orthogonalEdgeStyle;rounded=0;orthogonalLoop=1;jettySize=auto;html=1;entryX=1;entryY=0.5;entryDx=0;entryDy=0;" edge="1" parent="1" source="IF8HPUA9k70EKGD5hPpf-32" target="IF8HPUA9k70EKGD5hPpf-24">
          <mxGeometry relative="1" as="geometry">
            <mxPoint x="580" y="800" as="targetPoint" />
            <Array as="points">
              <mxPoint x="581" y="1150" />
              <mxPoint x="581" y="800" />
            </Array>
          </mxGeometry>
        </mxCell>
        <mxCell id="IF8HPUA9k70EKGD5hPpf-32" value="Write somma" style="rounded=0;whiteSpace=wrap;html=1;" vertex="1" parent="1">
          <mxGeometry x="350" y="1120" width="120" height="60" as="geometry" />
        </mxCell>
        <mxCell id="IF8HPUA9k70EKGD5hPpf-38" value="FALSE" style="text;html=1;align=center;verticalAlign=middle;resizable=0;points=[];autosize=1;strokeColor=none;fillColor=none;" vertex="1" parent="1">
          <mxGeometry x="270" y="778" width="60" height="30" as="geometry" />
        </mxCell>
      </root>
    </mxGraphModel>
  </diagram>
</mxfile>
